<svg width="1706.67" height="1634.67" viewBox="0 0 1280 1226" xmlns="http://www.w3.org/2000/svg" xmlns:xlink="http://www.w3.org/1999/xlink" overflow="hidden"><g transform="matrix(0.1 0 0 -0.1 0 1226)"><path d="M1374 11287C626 10752 13 10311 11 10307 8 10299 964 9431 3627 7022 4233 6474 4727 6020 4725 6013 4722 6004 421 618 212 363L178 320 321 371C465 422 575 448 2530 890 2725 934 3052 1008 3256 1054L3627 1138 5239 2611C6126 3422 6855 4085 6859 4085 6866 4085 7662 3366 10795 528L11375 2 11378 67C11381 123 11383 130 11396 119 11404 113 11412 109 11413 111 11415 113 11501 414 11604 780 11707 1146 11827 1568 11870 1717L11947 1990 11585 2412C9339 5037 8710 5774 8710 5779 8710 5782 9630 6626 10755 7654L12800 9523 12707 9587C12657 9621 11929 10117 11090 10689 9981 11444 9562 11725 9552 11717 9543 11710 9519 11725 9464 11770 9401 11823 9386 11830 9375 11819 9368 11811 8732 11016 7961 10053 7191 9089 6557 8300 6552 8301 6548 8301 6518 8334 6484 8373 6430 8437 5541 9476 3902 11393 3597 11749 3345 12040 3340 12040 3336 12040 3278 11997 3210 11944 3142 11891 3084 11853 3081 11858 3074 11868 2738 12260 2736 12260 2736 12260 2123 11822 1374 11287Z"/></g></svg>